<?xml version="1.0" standalone="no"?><!DOCTYPE svg PUBLIC "-//W3C//DTD SVG 1.1//EN" "http://www.w3.org/Graphics/SVG/1.1/DTD/svg11.dtd"><svg t="1619147830068" class="icon" viewBox="0 0 1024 1024" version="1.1" xmlns="http://www.w3.org/2000/svg" p-id="2875" xmlns:xlink="http://www.w3.org/1999/xlink" width="200" height="200"><defs><style type="text/css"></style></defs><path d="M403.5072 633.7024c63.0784 39.7568 129.8432 41.7792 198.528 3.3792l2.7648-1.6384 31.5648 31.6672 50.8672-50.176-31.6416-31.9744 3.7632-6.1696c70.784-122.4704-23.8848-263.2192-147.4048-259.5072h-35.1232l33.024 12.3904 5.4528 2.1248c78.6432 32.7936 121.088 123.648 89.3184 197.4272l-0.9728 2.0736-98.0992-98.5344 41.6256-41.728-35.0208-34.8672-4.5312 4.4032c-11.7504 11.52-31.5904 15.1808-45.6704 9.4976l-3.9168-1.5872-90.3424 90.368 55.9616 55.7568 31.232-31.1552 98.1504 98.4576-3.2 1.4848c-51.84 22.1952-116.224 7.936-163.072-40.7296l-4.5312-4.6848-34.8928 34.7648 13.2352 18.3808 3.5328 4.6592 2.2784 2.8416-1.792 0.3072a32.8192 32.8192 0 0 0-25.3952 32c0 17.5872 14.336 31.872 31.8976 31.872 16.5376 0 30.6176-12.6976 32.3072-28.7488l0.1024-2.3552z" p-id="2876" fill="#f4ea2a"></path><path d="M512 134.4C303.4624 134.4 134.4 303.4624 134.4 512S303.4624 889.6 512 889.6 889.6 720.5376 889.6 512 720.5376 134.4 512 134.4z m0 64c173.184 0 313.6 140.416 313.6 313.6S685.184 825.6 512 825.6 198.4 685.184 198.4 512 338.816 198.4 512 198.4z" p-id="2877" fill="#f4ea2a"></path></svg>